<mxfile host="app.diagrams.net" agent="Mozilla/5.0 (Windows NT 10.0; Win64; x64; rv:135.0) Gecko/20100101 Firefox/135.0" version="26.0.7">
  <diagram name="Pagina-1" id="QTqwcl8JW2HYvFlY76xd">
    <mxGraphModel dx="1122" dy="771" grid="1" gridSize="10" guides="1" tooltips="1" connect="1" arrows="1" fold="1" page="1" pageScale="1" pageWidth="827" pageHeight="1169" math="0" shadow="0">
      <root>
        <mxCell id="0" />
        <mxCell id="1" parent="0" />
        <mxCell id="Z34abKlq2bl1tn-oQDHh-1" value="MUX 16:1" style="shape=trapezoid;perimeter=trapezoidPerimeter;whiteSpace=wrap;html=1;fixedSize=1;rotation=90;" vertex="1" parent="1">
          <mxGeometry x="15" y="444.59000000000003" width="321.2" height="111.1" as="geometry" />
        </mxCell>
        <mxCell id="Z34abKlq2bl1tn-oQDHh-4" value="" style="endArrow=classic;html=1;rounded=0;" edge="1" parent="1">
          <mxGeometry width="50" height="50" relative="1" as="geometry">
            <mxPoint x="80.04000000000002" y="359.54" as="sourcePoint" />
            <mxPoint x="120.04000000000002" y="359.54" as="targetPoint" />
            <Array as="points">
              <mxPoint x="80.04000000000002" y="359.54" />
            </Array>
          </mxGeometry>
        </mxCell>
        <mxCell id="Z34abKlq2bl1tn-oQDHh-5" value="" style="endArrow=classic;html=1;rounded=0;" edge="1" parent="1">
          <mxGeometry width="50" height="50" relative="1" as="geometry">
            <mxPoint x="80.04000000000002" y="399.54" as="sourcePoint" />
            <mxPoint x="120.04000000000002" y="399.54" as="targetPoint" />
            <Array as="points">
              <mxPoint x="80.04000000000002" y="399.54" />
            </Array>
          </mxGeometry>
        </mxCell>
        <mxCell id="Z34abKlq2bl1tn-oQDHh-6" value="" style="endArrow=classic;html=1;rounded=0;" edge="1" parent="1">
          <mxGeometry width="50" height="50" relative="1" as="geometry">
            <mxPoint x="80.04000000000002" y="439.54" as="sourcePoint" />
            <mxPoint x="120.04000000000002" y="439.54" as="targetPoint" />
            <Array as="points">
              <mxPoint x="80.04000000000002" y="439.54" />
            </Array>
          </mxGeometry>
        </mxCell>
        <mxCell id="Z34abKlq2bl1tn-oQDHh-7" value="" style="endArrow=classic;html=1;rounded=0;" edge="1" parent="1">
          <mxGeometry width="50" height="50" relative="1" as="geometry">
            <mxPoint x="80.04000000000002" y="479.54" as="sourcePoint" />
            <mxPoint x="120.04000000000002" y="479.54" as="targetPoint" />
            <Array as="points">
              <mxPoint x="80.04000000000002" y="479.54" />
            </Array>
          </mxGeometry>
        </mxCell>
        <mxCell id="Z34abKlq2bl1tn-oQDHh-12" value="a&lt;sub&gt;0&lt;/sub&gt;" style="text;html=1;align=center;verticalAlign=middle;whiteSpace=wrap;rounded=0;" vertex="1" parent="1">
          <mxGeometry x="40.040000000000006" y="344.54" width="39.32" height="30" as="geometry" />
        </mxCell>
        <mxCell id="Z34abKlq2bl1tn-oQDHh-19" value="a&lt;sub&gt;1&lt;/sub&gt;" style="text;html=1;align=center;verticalAlign=middle;whiteSpace=wrap;rounded=0;" vertex="1" parent="1">
          <mxGeometry x="40.040000000000006" y="384.23" width="39.32" height="30" as="geometry" />
        </mxCell>
        <mxCell id="Z34abKlq2bl1tn-oQDHh-20" value="a&lt;sub&gt;2&lt;/sub&gt;" style="text;html=1;align=center;verticalAlign=middle;whiteSpace=wrap;rounded=0;" vertex="1" parent="1">
          <mxGeometry x="40.040000000000006" y="424.61" width="39.32" height="30" as="geometry" />
        </mxCell>
        <mxCell id="Z34abKlq2bl1tn-oQDHh-21" value="a&lt;sub&gt;3&lt;/sub&gt;" style="text;html=1;align=center;verticalAlign=middle;whiteSpace=wrap;rounded=0;" vertex="1" parent="1">
          <mxGeometry x="40.040000000000006" y="464.54" width="39.32" height="30" as="geometry" />
        </mxCell>
        <mxCell id="Z34abKlq2bl1tn-oQDHh-27" value="" style="endArrow=classic;html=1;rounded=0;" edge="1" parent="1">
          <mxGeometry width="50" height="50" relative="1" as="geometry">
            <mxPoint x="80.07" y="639.54" as="sourcePoint" />
            <mxPoint x="120.07" y="639.54" as="targetPoint" />
            <Array as="points">
              <mxPoint x="80.07" y="639.54" />
            </Array>
          </mxGeometry>
        </mxCell>
        <mxCell id="Z34abKlq2bl1tn-oQDHh-34" value="a&lt;sub&gt;15&lt;/sub&gt;" style="text;html=1;align=center;verticalAlign=middle;whiteSpace=wrap;rounded=0;" vertex="1" parent="1">
          <mxGeometry x="40.07000000000001" y="624.23" width="39.32" height="30" as="geometry" />
        </mxCell>
        <mxCell id="Z34abKlq2bl1tn-oQDHh-83" value="DMUX 1:4" style="shape=trapezoid;perimeter=trapezoidPerimeter;whiteSpace=wrap;html=1;fixedSize=1;rotation=90;direction=west;" vertex="1" parent="1">
          <mxGeometry x="595" y="464.69" width="158.75" height="69.38" as="geometry" />
        </mxCell>
        <mxCell id="Z34abKlq2bl1tn-oQDHh-89" value="" style="endArrow=classic;html=1;rounded=0;exitX=0.5;exitY=0;exitDx=0;exitDy=0;" edge="1" parent="1">
          <mxGeometry width="50" height="50" relative="1" as="geometry">
            <mxPoint x="131.10000000000002" y="690" as="sourcePoint" />
            <mxPoint x="130.68000000000006" y="659" as="targetPoint" />
          </mxGeometry>
        </mxCell>
        <mxCell id="Z34abKlq2bl1tn-oQDHh-90" value="" style="endArrow=classic;html=1;rounded=0;" edge="1" parent="1">
          <mxGeometry width="50" height="50" relative="1" as="geometry">
            <mxPoint x="160" y="690" as="sourcePoint" />
            <mxPoint x="160.00000000000006" y="654.23" as="targetPoint" />
          </mxGeometry>
        </mxCell>
        <mxCell id="Z34abKlq2bl1tn-oQDHh-97" value="y&lt;sub&gt;1&lt;/sub&gt;" style="text;html=1;align=center;verticalAlign=middle;whiteSpace=wrap;rounded=0;" vertex="1" parent="1">
          <mxGeometry x="749.7500000000001" y="464.69" width="39.32" height="30" as="geometry" />
        </mxCell>
        <mxCell id="Z34abKlq2bl1tn-oQDHh-99" value="" style="endArrow=none;dashed=1;html=1;dashPattern=1 3;strokeWidth=2;rounded=0;" edge="1" parent="1">
          <mxGeometry width="50" height="50" relative="1" as="geometry">
            <mxPoint x="59.59" y="569.54" as="sourcePoint" />
            <mxPoint x="59.59" y="539.54" as="targetPoint" />
          </mxGeometry>
        </mxCell>
        <mxCell id="Z34abKlq2bl1tn-oQDHh-113" value="" style="endArrow=classic;html=1;rounded=0;exitX=0.5;exitY=0;exitDx=0;exitDy=0;entryX=0.498;entryY=-0.005;entryDx=0;entryDy=0;entryPerimeter=0;" edge="1" parent="1" source="Z34abKlq2bl1tn-oQDHh-1" target="Z34abKlq2bl1tn-oQDHh-83">
          <mxGeometry width="50" height="50" relative="1" as="geometry">
            <mxPoint x="360" y="670" as="sourcePoint" />
            <mxPoint x="630" y="500" as="targetPoint" />
          </mxGeometry>
        </mxCell>
        <mxCell id="Z34abKlq2bl1tn-oQDHh-118" value="" style="endArrow=classic;html=1;rounded=0;" edge="1" parent="1">
          <mxGeometry width="50" height="50" relative="1" as="geometry">
            <mxPoint x="190" y="690" as="sourcePoint" />
            <mxPoint x="189.48" y="649" as="targetPoint" />
          </mxGeometry>
        </mxCell>
        <mxCell id="Z34abKlq2bl1tn-oQDHh-119" value="" style="endArrow=classic;html=1;rounded=0;" edge="1" parent="1">
          <mxGeometry width="50" height="50" relative="1" as="geometry">
            <mxPoint x="220" y="690" as="sourcePoint" />
            <mxPoint x="219.48" y="643" as="targetPoint" />
          </mxGeometry>
        </mxCell>
        <mxCell id="Z34abKlq2bl1tn-oQDHh-122" value="s&lt;sub&gt;3&lt;/sub&gt;" style="text;html=1;align=center;verticalAlign=middle;whiteSpace=wrap;rounded=0;" vertex="1" parent="1">
          <mxGeometry x="111.44000000000005" y="690" width="39.32" height="30" as="geometry" />
        </mxCell>
        <mxCell id="Z34abKlq2bl1tn-oQDHh-123" value="s&lt;sub&gt;2&lt;/sub&gt;" style="text;html=1;align=center;verticalAlign=middle;whiteSpace=wrap;rounded=0;" vertex="1" parent="1">
          <mxGeometry x="140.00000000000006" y="690" width="39.32" height="30" as="geometry" />
        </mxCell>
        <mxCell id="Z34abKlq2bl1tn-oQDHh-124" value="s&lt;sub&gt;1&lt;/sub&gt;" style="text;html=1;align=center;verticalAlign=middle;whiteSpace=wrap;rounded=0;" vertex="1" parent="1">
          <mxGeometry x="170.44" y="690" width="39.32" height="30" as="geometry" />
        </mxCell>
        <mxCell id="Z34abKlq2bl1tn-oQDHh-125" value="s&lt;sub&gt;0&lt;/sub&gt;" style="text;html=1;align=center;verticalAlign=middle;whiteSpace=wrap;rounded=0;" vertex="1" parent="1">
          <mxGeometry x="200.44" y="690" width="39.32" height="30" as="geometry" />
        </mxCell>
        <mxCell id="Z34abKlq2bl1tn-oQDHh-126" value="" style="endArrow=classic;html=1;rounded=0;" edge="1" parent="1">
          <mxGeometry width="50" height="50" relative="1" as="geometry">
            <mxPoint x="709" y="440" as="sourcePoint" />
            <mxPoint x="749" y="440" as="targetPoint" />
          </mxGeometry>
        </mxCell>
        <mxCell id="Z34abKlq2bl1tn-oQDHh-127" value="" style="endArrow=classic;html=1;rounded=0;" edge="1" parent="1">
          <mxGeometry width="50" height="50" relative="1" as="geometry">
            <mxPoint x="709" y="560" as="sourcePoint" />
            <mxPoint x="749" y="560" as="targetPoint" />
            <Array as="points">
              <mxPoint x="709" y="560" />
            </Array>
          </mxGeometry>
        </mxCell>
        <mxCell id="Z34abKlq2bl1tn-oQDHh-128" value="" style="endArrow=classic;html=1;rounded=0;" edge="1" parent="1">
          <mxGeometry width="50" height="50" relative="1" as="geometry">
            <mxPoint x="709" y="520" as="sourcePoint" />
            <mxPoint x="749" y="520" as="targetPoint" />
          </mxGeometry>
        </mxCell>
        <mxCell id="Z34abKlq2bl1tn-oQDHh-129" value="" style="endArrow=classic;html=1;rounded=0;" edge="1" parent="1">
          <mxGeometry width="50" height="50" relative="1" as="geometry">
            <mxPoint x="709" y="480.44" as="sourcePoint" />
            <mxPoint x="749" y="480.44" as="targetPoint" />
          </mxGeometry>
        </mxCell>
        <mxCell id="Z34abKlq2bl1tn-oQDHh-130" value="y&lt;sub&gt;0&lt;/sub&gt;" style="text;html=1;align=center;verticalAlign=middle;whiteSpace=wrap;rounded=0;" vertex="1" parent="1">
          <mxGeometry x="749.7500000000001" y="424.61" width="39.32" height="30" as="geometry" />
        </mxCell>
        <mxCell id="Z34abKlq2bl1tn-oQDHh-131" value="y&lt;sub&gt;2&lt;/sub&gt;" style="text;html=1;align=center;verticalAlign=middle;whiteSpace=wrap;rounded=0;" vertex="1" parent="1">
          <mxGeometry x="749.7500000000001" y="505.07" width="39.32" height="30" as="geometry" />
        </mxCell>
        <mxCell id="Z34abKlq2bl1tn-oQDHh-132" value="y&lt;sub&gt;3&lt;/sub&gt;" style="text;html=1;align=center;verticalAlign=middle;whiteSpace=wrap;rounded=0;" vertex="1" parent="1">
          <mxGeometry x="749.7500000000001" y="545" width="39.32" height="30" as="geometry" />
        </mxCell>
      </root>
    </mxGraphModel>
  </diagram>
</mxfile>
